<?xml version="1.0" encoding="UTF-8"?>
<svg width="32" height="32" viewBox="0 0 32 32" fill="none" xmlns="http://www.w3.org/2000/svg">
  <!-- Background -->
  <defs>
    <linearGradient id="faviconBg" x1="0%" y1="0%" x2="100%" y2="100%">
      <stop offset="0%" style="stop-color:#3B82F6;stop-opacity:1" />
      <stop offset="100%" style="stop-color:#1E40AF;stop-opacity:1" />
    </linearGradient>
  </defs>
  
  <!-- Background with rounded corners -->
  <rect width="32" height="32" rx="6" fill="url(#faviconBg)"/>
  
  <!-- Simplified scanner icon -->
  <g transform="translate(16, 16)">
    <!-- Scanner frame -->
    <rect x="-10" y="-10" width="20" height="20" rx="1" fill="none" stroke="white" stroke-width="1"/>
    
    <!-- Scanner corners -->
    <g stroke="white" stroke-width="0.5" fill="none">
      <!-- Top-left corner -->
      <path d="M-10,-10 L-10,-7 M-10,-10 L-7,-10"/>
      <!-- Top-right corner -->
      <path d="M10,-10 L10,-7 M10,-10 L7,-10"/>
      <!-- Bottom-left corner -->
      <path d="M-10,10 L-10,7 M-10,10 L-7,10"/>
      <!-- Bottom-right corner -->
      <path d="M10,10 L10,7 M10,10 L7,10"/>
    </g>
    
    <!-- Simplified barcode -->
    <g transform="translate(0, 0)">
      <rect x="-6" y="-4" width="1" height="8" fill="white"/>
      <rect x="-4" y="-4" width="0.5" height="8" fill="white"/>
      <rect x="-2.5" y="-4" width="1.5" height="8" fill="white"/>
      <rect x="0" y="-4" width="1" height="8" fill="white"/>
      <rect x="2" y="-4" width="0.5" height="8" fill="white"/>
      <rect x="3.5" y="-4" width="1.5" height="8" fill="white"/>
      <rect x="5.5" y="-4" width="1" height="8" fill="white"/>
    </g>
    
    <!-- Scanning line -->
    <rect x="-8" y="-0.5" width="16" height="1" fill="#10B981" opacity="0.8"/>
  </g>
</svg>