<?xml version="1.0" encoding="UTF-8"?>
<svg width="1024" height="1024" viewBox="0 0 1024 1024" fill="none" xmlns="http://www.w3.org/2000/svg">
  <!-- Foreground icon for adaptive icon -->
  <defs>
    <linearGradient id="scannerGradient" x1="0%" y1="0%" x2="100%" y2="100%">
      <stop offset="0%" style="stop-color:#10B981;stop-opacity:1" />
      <stop offset="100%" style="stop-color:#059669;stop-opacity:1" />
    </linearGradient>
  </defs>
  
  <!-- Main scanner icon (centered) -->
  <g transform="translate(512, 512)">
    <!-- Scanner frame -->
    <rect x="-200" y="-200" width="400" height="400" rx="24" fill="none" stroke="white" stroke-width="12"/>
    
    <!-- Scanner corners -->
    <g stroke="white" stroke-width="8" fill="none">
      <!-- Top-left corner -->
      <path d="M-200,-200 L-200,-150 M-200,-200 L-150,-200"/>
      <!-- Top-right corner -->
      <path d="M200,-200 L200,-150 M200,-200 L150,-200"/>
      <!-- Bottom-left corner -->
      <path d="M-200,200 L-200,150 M-200,200 L-150,200"/>
      <!-- Bottom-right corner -->
      <path d="M200,200 L200,150 M200,200 L150,200"/>
    </g>
    
    <!-- Barcode representation -->
    <g transform="translate(0, 0)">
      <rect x="-120" y="-80" width="10" height="160" fill="white"/>
      <rect x="-96" y="-80" width="6" height="160" fill="white"/>
      <rect x="-84" y="-80" width="14" height="160" fill="white"/>
      <rect x="-60" y="-80" width="8" height="160" fill="white"/>
      <rect x="-48" y="-80" width="10" height="160" fill="white"/>
      <rect x="-32" y="-80" width="6" height="160" fill="white"/>
      <rect x="-20" y="-80" width="12" height="160" fill="white"/>
      <rect x="0" y="-80" width="8" height="160" fill="white"/>
      <rect x="16" y="-80" width="10" height="160" fill="white"/>
      <rect x="32" y="-80" width="6" height="160" fill="white"/>
      <rect x="44" y="-80" width="14" height="160" fill="white"/>
      <rect x="68" y="-80" width="8" height="160" fill="white"/>
      <rect x="84" y="-80" width="10" height="160" fill="white"/>
      <rect x="100" y="-80" width="6" height="160" fill="white"/>
      <rect x="112" y="-80" width="10" height="160" fill="white"/>
    </g>
    
    <!-- Scanning line animation effect -->
    <rect x="-180" y="-4" width="360" height="8" fill="url(#scannerGradient)" opacity="0.9"/>
  </g>
</svg>