<?xml version="1.0" encoding="UTF-8"?>
<svg width="1024" height="1024" viewBox="0 0 1024 1024" fill="none" xmlns="http://www.w3.org/2000/svg">
  <!-- Background gradient -->
  <defs>
    <linearGradient id="bgGradient" x1="0%" y1="0%" x2="100%" y2="100%">
      <stop offset="0%" style="stop-color:#3B82F6;stop-opacity:1" />
      <stop offset="100%" style="stop-color:#1E40AF;stop-opacity:1" />
    </linearGradient>
    <linearGradient id="scannerGradient" x1="0%" y1="0%" x2="100%" y2="100%">
      <stop offset="0%" style="stop-color:#10B981;stop-opacity:1" />
      <stop offset="100%" style="stop-color:#059669;stop-opacity:1" />
    </linearGradient>
  </defs>
  
  <!-- Background with rounded corners -->
  <rect width="1024" height="1024" rx="180" fill="url(#bgGradient)"/>
  
  <!-- Main scanner icon -->
  <g transform="translate(512, 512)">
    <!-- Scanner frame -->
    <rect x="-200" y="-200" width="400" height="400" rx="24" fill="none" stroke="white" stroke-width="8"/>
    
    <!-- Scanner corners -->
    <g stroke="white" stroke-width="6" fill="none">
      <!-- Top-left corner -->
      <path d="M-200,-200 L-200,-150 M-200,-200 L-150,-200"/>
      <!-- Top-right corner -->
      <path d="M200,-200 L200,-150 M200,-200 L150,-200"/>
      <!-- Bottom-left corner -->
      <path d="M-200,200 L-200,150 M-200,200 L-150,200"/>
      <!-- Bottom-right corner -->
      <path d="M200,200 L200,150 M200,200 L150,200"/>
    </g>
    
    <!-- Barcode representation -->
    <g transform="translate(0, 0)">
      <rect x="-120" y="-80" width="8" height="160" fill="white"/>
      <rect x="-96" y="-80" width="4" height="160" fill="white"/>
      <rect x="-84" y="-80" width="12" height="160" fill="white"/>
      <rect x="-60" y="-80" width="6" height="160" fill="white"/>
      <rect x="-48" y="-80" width="8" height="160" fill="white"/>
      <rect x="-32" y="-80" width="4" height="160" fill="white"/>
      <rect x="-20" y="-80" width="10" height="160" fill="white"/>
      <rect x="0" y="-80" width="6" height="160" fill="white"/>
      <rect x="16" y="-80" width="8" height="160" fill="white"/>
      <rect x="32" y="-80" width="4" height="160" fill="white"/>
      <rect x="44" y="-80" width="12" height="160" fill="white"/>
      <rect x="68" y="-80" width="6" height="160" fill="white"/>
      <rect x="84" y="-80" width="8" height="160" fill="white"/>
      <rect x="100" y="-80" width="4" height="160" fill="white"/>
      <rect x="112" y="-80" width="8" height="160" fill="white"/>
    </g>
    
    <!-- Scanning line animation effect -->
    <rect x="-180" y="-2" width="360" height="4" fill="url(#scannerGradient)" opacity="0.8"/>
    
    <!-- Bottom text -->
    <text x="0" y="280" text-anchor="middle" fill="white" font-family="system-ui, -apple-system, sans-serif" font-size="48" font-weight="600">
      ProcessedOrNot
    </text>
    
    <!-- Subtitle -->
    <text x="0" y="320" text-anchor="middle" fill="white" font-family="system-ui, -apple-system, sans-serif" font-size="24" opacity="0.9">
      Scanner
    </text>
  </g>
  
  <!-- Decorative elements -->
  <circle cx="150" cy="150" r="8" fill="white" opacity="0.3"/>
  <circle cx="874" cy="200" r="12" fill="white" opacity="0.2"/>
  <circle cx="200" cy="874" r="10" fill="white" opacity="0.25"/>
  <circle cx="824" cy="824" r="6" fill="white" opacity="0.3"/>
</svg>