<svg width="32" height="32" viewBox="0 0 32 32" xmlns="http://www.w3.org/2000/svg">
  <defs>
    <linearGradient id="favGradient" x1="0%" y1="0%" x2="100%" y2="100%">
      <stop offset="0%" style="stop-color:#1e3a8a;stop-opacity:1" />
      <stop offset="100%" style="stop-color:#0f172a;stop-opacity:1" />
    </linearGradient>
  </defs>
  
  <!-- Background -->
  <rect width="32" height="32" rx="6" ry="6" fill="url(#favGradient)"/>
  
  <!-- Phone outline -->
  <rect x="10" y="6" width="12" height="20" rx="2" ry="2" fill="#f3f4f6" stroke="#d1d5db" stroke-width="0.5"/>
  
  <!-- Screen -->
  <rect x="11" y="8" width="10" height="16" rx="1" ry="1" fill="#1f2937"/>
  
  <!-- Header -->
  <rect x="11.5" y="8.5" width="9" height="2" rx="0.5" ry="0.5" fill="#f97316"/>
  
  <!-- Barcode -->
  <g transform="translate(12, 12)">
    <rect x="0" y="0" width="0.5" height="6" fill="#f97316"/>
    <rect x="1" y="0" width="0.25" height="6" fill="#f97316"/>
    <rect x="1.5" y="0" width="0.75" height="6" fill="#f97316"/>
    <rect x="2.5" y="0" width="0.25" height="6" fill="#f97316"/>
    <rect x="3" y="0" width="0.5" height="6" fill="#f97316"/>
    <rect x="3.75" y="0" width="0.25" height="6" fill="#f97316"/>
    <rect x="4.25" y="0" width="0.75" height="6" fill="#f97316"/>
    <rect x="5.25" y="0" width="0.25" height="6" fill="#f97316"/>
    <rect x="5.75" y="0" width="0.5" height="6" fill="#f97316"/>
    <rect x="6.5" y="0" width="0.75" height="6" fill="#f97316"/>
    <rect x="7.5" y="0" width="0.25" height="6" fill="#f97316"/>
    <rect x="8" y="0" width="0.5" height="6" fill="#f97316"/>
  </g>
  
  <!-- Processing indicator -->
  <circle cx="16" cy="20" r="2" fill="#10b981" opacity="0.8"/>
</svg>